<?xml version="1.0" encoding="UTF-8" standalone="no"?>
<!-- Created with Inkscape (http://www.inkscape.org/) -->

<svg
   xmlns:dc="http://purl.org/dc/elements/1.1/"
   xmlns:cc="http://creativecommons.org/ns#"
   xmlns:rdf="http://www.w3.org/1999/02/22-rdf-syntax-ns#"
   xmlns:svg="http://www.w3.org/2000/svg"
   xmlns="http://www.w3.org/2000/svg"
   xmlns:sodipodi="http://sodipodi.sourceforge.net/DTD/sodipodi-0.dtd"
   xmlns:inkscape="http://www.inkscape.org/namespaces/inkscape"
   width="40mm"
   height="40mm"
   viewBox="0 0 141.73228 141.73229"
   id="svg18169"
   version="1.1"
   inkscape:version="0.91 r13725"
   sodipodi:docname="FullSave - Logo avec baseline - Wiki Clients - Vert.svg"
   inkscape:export-filename="/Users/guillaumefouquet/Downloads/FullSave - Logo avec baseline - Wiki Clients - Vert.png"
   inkscape:export-xdpi="300"
   inkscape:export-ydpi="300">
  <defs
     id="defs18171">
    <clipPath
       clipPathUnits="userSpaceOnUse"
       id="clipPath66">
      <path
         d="m 0,0 170.079,0 0,-137.976 L 0,-137.976 0,0 Z"
         id="path68"
         inkscape:connector-curvature="0"
         style="clip-rule:evenodd" />
    </clipPath>
    <clipPath
       clipPathUnits="userSpaceOnUse"
       id="clipPath70">
      <path
         d="m 0,-137.97582 595.27559,0 0,275.95164 -595.27559,0 0,-275.95164 z"
         id="path72"
         inkscape:connector-curvature="0" />
    </clipPath>
    <clipPath
       clipPathUnits="userSpaceOnUse"
       id="clipPath74">
      <path
         d="m 0,0 113.337,0 0,-97.8196 L 0,-97.8196 0,0 Z"
         id="path76"
         inkscape:connector-curvature="0"
         style="clip-rule:evenodd" />
    </clipPath>
    <clipPath
       clipPathUnits="userSpaceOnUse"
       id="clipPath78">
      <path
         d="m 0,-97.81961 595.27559,0 0,195.63922 L 0,97.81961 0,-97.81961 Z"
         id="path80"
         inkscape:connector-curvature="0" />
    </clipPath>
  </defs>
  <sodipodi:namedview
     id="base"
     pagecolor="#ffffff"
     bordercolor="#666666"
     borderopacity="1.0"
     inkscape:pageopacity="0"
     inkscape:pageshadow="2"
     inkscape:zoom="7.919596"
     inkscape:cx="60.083111"
     inkscape:cy="72.744437"
     inkscape:document-units="px"
     inkscape:current-layer="g20233"
     showgrid="false"
     fit-margin-top="0"
     fit-margin-left="0"
     fit-margin-right="0"
     fit-margin-bottom="0"
     inkscape:window-width="1920"
     inkscape:window-height="1085"
     inkscape:window-x="0"
     inkscape:window-y="1"
     inkscape:window-maximized="1"
     showguides="true"
     inkscape:guide-bbox="true">
    <sodipodi:guide
       position="70.803569,60.446431"
       orientation="1,0"
       id="guide3383" />
    <sodipodi:guide
       position="19.464285,24.754465"
       orientation="0,1"
       id="guide3416" />
  </sodipodi:namedview>
  <metadata
     id="metadata18174">
    <rdf:RDF>
      <cc:Work
         rdf:about="">
        <dc:format>image/svg+xml</dc:format>
        <dc:type
           rdf:resource="http://purl.org/dc/dcmitype/StillImage" />
        <dc:title></dc:title>
      </cc:Work>
    </rdf:RDF>
  </metadata>
  <g
     inkscape:label="Calque 1"
     inkscape:groupmode="layer"
     id="layer1"
     transform="translate(-197.27078,-310.54049)"
     style="display:inline">
    <g
       id="g3356"
       inkscape:export-xdpi="96"
       inkscape:export-ydpi="96">
      <g
         transform="matrix(1.035396,0,0,1.035396,-6.9825888,-16.00863)"
         id="g20233"
         style="fill:#5db280;fill-opacity:1">
        <path
           inkscape:connector-curvature="0"
           id="path486"
           style="fill:#5db280;fill-opacity:1;fill-rule:nonzero;stroke:none"
           d="m 231.63344,400.79526 -0.78753,0 c -1.29661,0 -1.90662,0.61789 -1.90662,2.10877 l 0,0.36109 1.62704,0 c 0.76239,0 1.39781,0.64135 1.39781,1.41394 0,0.7955 -0.63542,1.44008 -1.39781,1.44008 l -1.62704,0 0,8.94635 c 0,0.95181 -0.76269,1.72358 -1.7034,1.72358 -0.96588,0 -1.72829,-0.77177 -1.72829,-1.72358 l 0,-8.94635 -0.38104,0 c -0.76236,0 -1.39781,-0.64458 -1.39781,-1.44008 0,-0.77259 0.63545,-1.41394 1.39781,-1.41394 l 0.38104,0 0,-0.36109 c 0,-3.18826 1.6271,-5.14313 4.9064,-5.14313 l 1.21944,0 c 0.81353,0 1.49987,0.6942 1.49987,1.51718 0,0.84919 -0.68634,1.51718 -1.49987,1.51718 z"
           inkscape:export-xdpi="300"
           inkscape:export-ydpi="300" />
        <path
           inkscape:connector-curvature="0"
           id="path494"
           style="fill:#5db280;fill-opacity:1;fill-rule:nonzero;stroke:none"
           d="m 244.21671,416.78906 c -0.53318,0 -1.11831,-0.18005 -1.60188,-0.56615 -0.25312,-0.17932 -0.48144,-0.43721 -0.65978,-0.74489 -0.89048,0.82236 -2.11074,1.31104 -3.73644,1.31104 -3.05003,0 -4.27092,-1.95467 -4.27092,-4.80776 l 0,-7.12261 c 0,-0.95221 0.76235,-1.74855 1.70313,-1.74855 0.93934,0 1.72851,0.79634 1.72851,1.74855 l 0,6.68488 c 0,1.18291 0.30531,1.97978 1.77865,1.97978 0.94068,0 1.67821,-0.41114 2.11069,-1.05476 l 0,-7.6099 c 0,-0.95221 0.78781,-1.74855 1.72852,-1.74855 0.94079,0 1.70309,0.79634 1.70309,1.74855 l 0,8.0474 c 0,0.8753 0.35513,1.10536 0.76193,1.44043 0.25437,0.2048 0.48364,0.53935 0.48364,1.02796 0,1.00425 -0.73808,1.41458 -1.72914,1.41458 z"
           inkscape:export-xdpi="300"
           inkscape:export-ydpi="300" />
        <path
           inkscape:connector-curvature="0"
           id="path502"
           style="fill:#5db280;fill-opacity:1;fill-rule:nonzero;stroke:none"
           d="m 250.62436,416.78905 c -0.53398,0 -1.11827,-0.18012 -1.60193,-0.56615 -0.76184,-0.56528 -1.34749,-1.56805 -1.34749,-3.00775 l 0,-13.47332 c 0,-0.95162 0.78833,-1.72364 1.7291,-1.72364 0.9407,0 1.70257,0.77202 1.70257,1.72364 l 0,13.16433 c 0,0.87515 0.3564,1.10528 0.76318,1.44042 0.25387,0.2048 0.48309,0.53928 0.48309,1.02797 0,1.00417 -0.73751,1.4145 -1.72852,1.4145 z"
           inkscape:export-xdpi="300"
           inkscape:export-ydpi="300" />
        <path
           inkscape:connector-curvature="0"
           id="path510"
           style="fill:#5db280;fill-opacity:1;fill-rule:nonzero;stroke:none"
           d="m 257.03004,416.78905 c -0.53347,0 -1.11825,-0.18012 -1.60134,-0.56615 -0.76185,-0.56528 -1.34671,-1.56805 -1.34671,-3.00775 l 0,-13.47332 c 0,-0.95162 0.78754,-1.72364 1.72832,-1.72364 0.94069,0 1.70256,0.77202 1.70256,1.72364 l 0,13.16433 c 0,0.87515 0.3564,1.10528 0.76319,1.44042 0.25302,0.2048 0.48224,0.53928 0.48224,1.02797 0,1.00417 -0.73667,1.4145 -1.72826,1.4145 z"
           inkscape:export-xdpi="300"
           inkscape:export-ydpi="300" />
        <path
           inkscape:connector-curvature="0"
           id="path518"
           style="fill:#5db280;fill-opacity:1;fill-rule:nonzero;stroke:none"
           d="m 264.35179,416.78906 c -1.80537,0 -2.77126,-0.23072 -3.66028,-0.53987 -0.73809,-0.25701 -1.04284,-1.13084 -0.8393,-1.85201 0.27955,-0.84783 1.14404,-1.18209 1.8555,-0.9253 0.76263,0.28315 1.37268,0.48876 2.695,0.48876 1.29579,0 2.05758,-0.48876 2.05758,-1.25957 0,-1.31192 -1.82973,-1.26045 -3.55803,-1.72226 -1.5496,-0.38595 -3.02428,-1.18373 -3.02428,-3.70315 0,-2.72638 2.21134,-4.16552 4.75258,-4.16552 1.62704,0 2.59292,0.23159 3.55888,0.56562 0.78836,0.28278 1.16947,1.07998 0.91503,1.82485 -0.22868,0.74654 -1.01704,1.18291 -1.7789,0.95213 -0.96591,-0.33367 -1.62707,-0.48867 -2.49095,-0.48867 -1.22025,0 -1.72911,0.48867 -1.72911,1.10459 0,1.1569 1.44959,1.20893 3.12697,1.56952 1.70252,0.38601 3.48201,1.1054 3.48201,3.90876 0,3.05922 -2.61732,4.24212 -5.3627,4.24212 z"
           inkscape:export-xdpi="300"
           inkscape:export-ydpi="300" />
        <path
           inkscape:connector-curvature="0"
           id="path526"
           style="fill:#5db280;fill-opacity:1;fill-rule:nonzero;stroke:none"
           d="m 278.23144,411.18361 -1.85638,0 c -1.49899,0 -2.03297,0.61675 -2.03297,1.46598 l 0,0.17962 c 0,0.95218 0.58487,1.4905 1.90665,1.4905 1.16996,0 1.9827,-0.64215 1.9827,-2.0043 l 0,-1.1318 z m 2.84676,5.60545 c -0.68635,0 -1.24484,-0.28308 -1.57532,-0.53987 -0.20351,-0.15435 -0.35594,-0.33455 -0.50881,-0.54096 -0.96589,0.85011 -2.36456,1.08083 -3.48286,1.08083 -3.05001,0 -4.57507,-1.59405 -4.57507,-4.01199 l 0,-0.17866 c 0,-2.41819 1.77891,-3.90877 5.033,-3.90877 l 2.2623,0 0,-0.48781 c 0,-1.49232 -0.38165,-2.34069 -1.9318,-2.34069 -1.06795,0 -1.72909,0.25793 -2.28684,0.56561 -1.67799,0.87439 -3.02549,-1.36254 -1.4753,-2.36527 1.09313,-0.71975 2.69419,-0.95134 4.04171,-0.95134 3.68605,0 5.08427,1.6456 5.08427,5.502 l 0,4.29395 c 0,0.8753 0.27911,1.10536 0.66059,1.44043 0.25481,0.23108 0.48378,0.53935 0.48378,1.02796 0,1.00425 -0.68781,1.41458 -1.72965,1.41458 z"
           inkscape:export-xdpi="300"
           inkscape:export-ydpi="300" />
        <path
           inkscape:connector-curvature="0"
           id="path534"
           style="fill:#5db280;fill-opacity:1;fill-rule:nonzero;stroke:none"
           d="m 291.42551,415.06541 c -0.61054,1.46686 -1.39845,1.72365 -2.26303,1.72365 -0.96547,0 -1.67757,-0.28308 -2.26157,-1.72365 -1.17015,-3.00804 -2.46626,-6.63341 -3.43244,-9.89853 -0.38074,-1.23433 0.58472,-2.05674 1.5509,-2.05674 0.60976,0 1.1952,0.35973 1.44927,1.13088 0.78724,2.54685 1.77851,5.63101 2.71887,8.20238 0.94117,-2.54541 1.95816,-5.60553 2.79547,-8.20238 0.25481,-0.77115 0.86526,-1.13088 1.50082,-1.13088 0.99047,0 1.98322,0.87388 1.57598,2.1334 -1.06783,3.3171 -2.36323,6.78872 -3.63427,9.82187 z"
           inkscape:export-xdpi="300"
           inkscape:export-ydpi="300" />
        <path
           inkscape:connector-curvature="0"
           id="path542"
           style="fill:#5db280;fill-opacity:1;fill-rule:nonzero;stroke:none"
           d="m 301.66985,405.80908 c -1.34766,0 -2.00823,0.82329 -2.00823,2.28925 l 0,0.33367 3.93987,0 0,-0.33367 c 0,-1.46596 -0.58402,-2.28925 -1.93164,-2.28925 l 0,0 z m 4.06655,5.22033 -6.07478,0 0,0.4878 c 0,1.54353 0.68707,2.44343 2.10911,2.44343 1.27183,0 1.95816,-0.20561 2.84706,-0.56528 0.68634,-0.28315 1.44997,0.12799 1.65245,0.87464 0.22905,0.77088 -0.0758,1.41311 -0.71137,1.69531 -1.39771,0.6437 -2.77043,0.82375 -3.99068,0.82375 -3.93912,0 -5.33829,-2.62289 -5.33829,-5.63063 l 0,-2.39217 c 0,-3.00778 1.65252,-5.65612 5.36338,-5.65612 3.86328,0 5.31325,2.59745 5.31325,5.5795 l 0,1.10544 c 0,0.69424 -0.53465,1.23433 -1.17013,1.23433 z"
           inkscape:export-xdpi="300"
           inkscape:export-ydpi="300" />
        <path
           inkscape:connector-curvature="0"
           id="path550"
           style="fill:#5db280;fill-opacity:1;fill-rule:nonzero;stroke:none"
           d="m 245.4384,380.48593 20.27839,11.8427 -7.23559,-13.32586 c 5.91428,-8.59028 15.10036,-14.50348 24.57178,-18.60315 l -17.33619,31.92901 20.27751,-11.8427 0,-23.68525 -20.27751,-11.84174 -20.27839,11.84174 0,23.68525 0,0 z m 2.4504,-20.99311 c 5.21952,1.55799 10.68377,2.35244 16.27733,2.35244 1.03444,0 2.07334,-0.0369 3.11563,-0.0897 -4.22925,1.68525 -8.37402,3.8721 -13.82198,7.99857 l -5.57098,-10.26128 0,0 z m 0.1776,-2.22614 17.65039,-10.30616 16.42402,9.5902 c -1.49554,0.55955 -2.88907,1.05139 -4.20304,1.50241 -10.29486,2.35721 -20.51155,2.08978 -29.87137,-0.78645 l 0,0 z m 6.44645,14.42806 c 8.27649,-6.30341 13.44637,-8.01766 20.55581,-10.37488 0.95877,-0.31781 1.96061,-0.65052 3.00569,-1.00674 -7.96568,3.95567 -15.46401,9.30242 -20.74912,16.56183 l -2.81238,-5.18021 0,0 z"
           inkscape:export-xdpi="300"
           inkscape:export-ydpi="300" />
      </g>
      <text
         sodipodi:linespacing="110%"
         id="text3375"
         y="430.43741"
         x="226.60846"
         style="font-style:normal;font-variant:normal;font-weight:300;font-stretch:normal;font-size:10px;line-height:110.00000238%;font-family:Roboto;-inkscape-font-specification:'Roboto, Light';text-align:start;letter-spacing:0px;word-spacing:0px;writing-mode:lr-tb;text-anchor:start;fill:#5db280;fill-opacity:1;stroke:none;stroke-width:1px;stroke-linecap:butt;stroke-linejoin:miter;stroke-opacity:1"
         xml:space="preserve"
         inkscape:export-xdpi="300"
         inkscape:export-ydpi="300"><tspan
           y="430.43741"
           x="226.60846"
           id="tspan3381"
           sodipodi:role="line">{  wiki doc clients  }</tspan></text>
    </g>
  </g>
</svg>
