<?xml version="1.0" encoding="UTF-8" standalone="no"?>
<!-- Created with Inkscape (http://www.inkscape.org/) -->

<svg
   xmlns:dc="http://purl.org/dc/elements/1.1/"
   xmlns:cc="http://creativecommons.org/ns#"
   xmlns:rdf="http://www.w3.org/1999/02/22-rdf-syntax-ns#"
   xmlns:svg="http://www.w3.org/2000/svg"
   xmlns="http://www.w3.org/2000/svg"
   xmlns:sodipodi="http://sodipodi.sourceforge.net/DTD/sodipodi-0.dtd"
   xmlns:inkscape="http://www.inkscape.org/namespaces/inkscape"
   id="svg2"
   version="1.1"
   inkscape:version="0.91 r13725"
   xml:space="preserve"
   width="250"
   height="75"
   viewBox="0 0 250 75.000003"
   sodipodi:docname="FullSave - Logo horizontal sans baseline.svg"
   inkscape:export-filename="/Users/guillaumefouquet/Documents/FullSave/Marketing/Charte graphique/Logos/FullSave - Logo horizontal sans baseline.png"
   inkscape:export-xdpi="300"
   inkscape:export-ydpi="300"><metadata
     id="metadata8"><rdf:RDF><cc:Work
         rdf:about=""><dc:format>image/svg+xml</dc:format><dc:type
           rdf:resource="http://purl.org/dc/dcmitype/StillImage" /><dc:title /></cc:Work></rdf:RDF></metadata><defs
     id="defs6"><clipPath
       clipPathUnits="userSpaceOnUse"
       id="clipPath22"><path
         d="m 0,0 114.08921,0 0,-26.63172 L 0,-26.63172 0,0 Z"
         id="path24"
         inkscape:connector-curvature="0"
         style="clip-rule:evenodd" /></clipPath><clipPath
       clipPathUnits="userSpaceOnUse"
       id="clipPath32"><path
         d="m 0,-26.63172 595.27559,0 0,53.26344 -595.27559,0 0,-53.26344 z"
         id="path34"
         inkscape:connector-curvature="0" /></clipPath><clipPath
       clipPathUnits="userSpaceOnUse"
       id="clipPath504"><path
         d="m 0,0 184.25197,0 0,-54.81197 L 0,-54.81197 0,0 Z"
         id="path506"
         inkscape:connector-curvature="0"
         style="clip-rule:evenodd" /></clipPath><clipPath
       clipPathUnits="userSpaceOnUse"
       id="clipPath514"><path
         d="m 0,-110.32309 595.27559,0 0,220.64618 -595.27559,0 0,-220.64618 z"
         id="path516"
         inkscape:connector-curvature="0" /></clipPath><clipPath
       clipPathUnits="userSpaceOnUse"
       id="clipPath518"><path
         d="m 0,0 244.024,0 0,-55.6554 L 0,-55.6554 0,0 Z"
         id="path520"
         inkscape:connector-curvature="0"
         style="clip-rule:evenodd" /></clipPath><clipPath
       clipPathUnits="userSpaceOnUse"
       id="clipPath522"><path
         d="m 0,-55.65543 595.27559,0 0,111.31086 L 0,55.65543 0,-55.65543 Z"
         id="path524"
         inkscape:connector-curvature="0" /></clipPath></defs><sodipodi:namedview
     pagecolor="#ffffff"
     bordercolor="#666666"
     borderopacity="1"
     objecttolerance="10"
     gridtolerance="10"
     guidetolerance="10"
     inkscape:pageopacity="0"
     inkscape:pageshadow="2"
     inkscape:window-width="1920"
     inkscape:window-height="1085"
     id="namedview4"
     showgrid="false"
     fit-margin-top="0"
     fit-margin-left="0"
     fit-margin-right="0"
     fit-margin-bottom="0"
     inkscape:zoom="3.5881183"
     inkscape:cx="196.16222"
     inkscape:cy="-20.253166"
     inkscape:window-x="1440"
     inkscape:window-y="1"
     inkscape:window-maximized="1"
     inkscape:current-layer="g10" /><g
     id="g10"
     inkscape:groupmode="layer"
     inkscape:label="Fond"
     transform="matrix(1.25,0,0,-1.25,-223.97409,538.57651)"><g
       id="g512"
       transform="matrix(0.53929495,0,0,0.53929495,179.17927,400.79803)" /><g
       id="g542"
       transform="matrix(0.67728435,0,0,0.67728435,247.57837,377.92245)" /><g
       id="g4190"><g
         id="g4180"><path
           inkscape:connector-curvature="0"
           id="path554"
           style="fill:#41545d;fill-opacity:1;fill-rule:nonzero;stroke:none"
           d="m 260.0849,410.83065 -1.246,0 c -2.05143,0 -3.01656,-0.97466 -3.01656,-3.32637 l 0,-0.56959 2.57423,0 c 1.20624,0 2.2116,-1.01166 2.2116,-2.2303 0,-1.2548 -1.00536,-2.27154 -2.2116,-2.27154 l -2.57423,0 0,-14.11183 c 0,-1.50141 -1.20671,-2.71876 -2.69508,-2.71876 -1.52818,0 -2.73446,1.21735 -2.73446,2.71876 l 0,14.11183 -0.60286,0 c -1.20618,0 -2.21157,1.01674 -2.21157,2.27154 0,1.21864 1.00539,2.2303 2.21157,2.2303 l 0.60286,0 0,0.56959 c 0,5.02913 2.57436,8.11272 7.76279,8.11272 l 1.92931,0 c 1.28718,0 2.37307,-1.09501 2.37307,-2.39317 0,-1.33951 -1.08589,-2.39318 -2.37307,-2.39318 z" /><path
           inkscape:connector-curvature="0"
           id="path562"
           style="fill:#41545d;fill-opacity:1;fill-rule:nonzero;stroke:none"
           d="m 279.99376,385.60219 c -0.84356,0 -1.76941,0.28412 -2.5344,0.89306 -0.40048,0.28284 -0.76181,0.68968 -1.04397,1.17496 -1.40882,-1.29714 -3.33948,-2.06802 -5.91161,-2.06802 -4.82568,0 -6.75733,3.08333 -6.75733,7.58375 l 0,11.2351 c 0,1.502 1.20616,2.75814 2.69463,2.75814 1.48619,0 2.73479,-1.25614 2.73479,-2.75814 l 0,-10.54461 c 0,-1.86598 0.48307,-3.12289 2.81415,-3.12289 1.48826,0 2.65522,0.6485 3.33948,1.66375 l 0,12.00375 c 0,1.502 1.24641,2.75814 2.73481,2.75814 1.48847,0 2.69457,-1.25614 2.69457,-2.75814 l 0,-12.69383 c 0,-1.38065 0.56181,-1.74367 1.20544,-2.27216 0.40244,-0.32299 0.76519,-0.85073 0.76519,-1.62148 0,-1.58403 -1.1677,-2.23138 -2.73575,-2.23138 z" /><path
           inkscape:connector-curvature="0"
           id="path570"
           style="fill:#41545d;fill-opacity:1;fill-rule:nonzero;stroke:none"
           d="m 290.13174,385.60225 c -0.84484,0 -1.76929,0.28412 -2.53452,0.89307 -1.20536,0.89158 -2.13196,2.47344 -2.13196,4.74438 l 0,21.25261 c 0,1.50108 1.24727,2.71885 2.73572,2.71885 1.48835,0 2.69375,-1.21777 2.69375,-2.71885 l 0,-20.76517 c 0,-1.38051 0.56389,-1.74354 1.2075,-2.27216 0.40164,-0.32299 0.76433,-0.8506 0.76433,-1.62148 0,-1.58403 -1.16688,-2.23125 -2.73482,-2.23125 z" /><path
           inkscape:connector-curvature="0"
           id="path578"
           style="fill:#41545d;fill-opacity:1;fill-rule:nonzero;stroke:none"
           d="m 300.26659,385.60225 c -0.84402,0 -1.76925,0.28412 -2.53358,0.89307 -1.20537,0.89158 -2.13072,2.47344 -2.13072,4.74438 l 0,21.25261 c 0,1.50108 1.24603,2.71885 2.73449,2.71885 1.48833,0 2.69373,-1.21777 2.69373,-2.71885 l 0,-20.76517 c 0,-1.38051 0.5639,-1.74354 1.20751,-2.27216 0.40031,-0.32299 0.76299,-0.8506 0.76299,-1.62148 0,-1.58403 -1.16554,-2.23125 -2.73442,-2.23125 z" /><path
           inkscape:connector-curvature="0"
           id="path586"
           style="fill:#41545d;fill-opacity:1;fill-rule:nonzero;stroke:none"
           d="m 311.85087,385.60219 c -2.85642,0 -4.38463,0.36404 -5.79121,0.85161 -1.16778,0.40543 -1.64993,1.78377 -1.3279,2.92134 0.4423,1.33736 1.81004,1.86463 2.93571,1.45954 1.20661,-0.4466 2.17181,-0.77088 4.26393,-0.77088 2.05014,0 3.25544,0.77088 3.25544,1.98674 0,2.06938 -2.89492,1.98824 -5.62939,2.71666 -2.45174,0.60888 -4.78492,1.86727 -4.78492,5.84135 0,4.30056 3.4987,6.57063 7.51939,6.57063 2.57422,0 4.10245,-0.36531 5.63074,-0.8922 1.24729,-0.44605 1.85027,-1.70355 1.4477,-2.8785 -0.36181,-1.17757 -1.6091,-1.86591 -2.81453,-1.50186 -1.52822,0.52631 -2.57429,0.77081 -3.94105,0.77081 -1.93066,0 -2.73575,-0.77081 -2.73575,-1.74236 0,-1.82492 2.29349,-1.90694 4.94736,-2.47572 2.69369,-0.60888 5.5091,-1.74367 5.5091,-6.16566 0,-4.82552 -4.14099,-6.6915 -8.48462,-6.6915 z" /><path
           inkscape:connector-curvature="0"
           id="path594"
           style="fill:#41545d;fill-opacity:1;fill-rule:nonzero;stroke:none"
           d="m 333.81082,394.4442 -2.93712,0 c -2.37168,0 -3.21651,-0.97278 -3.21651,-2.31245 l 0,-0.28324 c 0,-1.50195 0.92535,-2.35112 3.01665,-2.35112 1.85108,0 3.13698,1.01287 3.13698,3.16156 l 0,1.78525 z m 4.50407,-8.84201 c -1.08596,0 -1.96954,0.4466 -2.49247,0.85161 -0.32198,0.24349 -0.5631,0.52781 -0.80495,0.85332 -1.5283,-1.34089 -3.74119,-1.70493 -5.51053,-1.70493 -4.82565,0 -7.23854,2.51455 -7.23854,6.32854 l 0,0.28182 c 0,3.8144 2.81455,6.16559 7.96304,6.16559 l 3.57938,0 0,0.76946 c 0,2.35398 -0.60387,3.69219 -3.05645,3.69219 -1.68969,0 -2.73572,-0.40686 -3.61817,-0.89218 -2.65487,-1.37925 -4.78684,2.14925 -2.33419,3.73094 1.72953,1.13532 4.26267,1.50063 6.39469,1.50063 5.83196,0 8.04417,-2.59575 8.04417,-8.67879 l 0,-6.77318 c 0,-1.38065 0.44159,-1.74367 1.04519,-2.27216 0.40305,-0.36451 0.7654,-0.85073 0.7654,-1.62148 0,-1.58403 -1.08819,-2.23138 -2.73657,-2.23138 z" /><path
           inkscape:connector-curvature="0"
           id="path602"
           style="fill:#41545d;fill-opacity:1;fill-rule:nonzero;stroke:none"
           d="m 354.68597,388.32108 c -0.96588,-2.31381 -2.21255,-2.71889 -3.58046,-2.71889 -1.52748,0 -2.65418,0.4466 -3.57816,2.71889 -1.85138,4.74485 -3.90204,10.4635 -5.4307,15.61383 -0.6024,1.94701 0.92512,3.24427 2.45377,3.24427 0.96476,0 1.89103,-0.56743 2.293,-1.78383 1.24556,-4.01737 2.81392,-8.88225 4.30171,-12.9383 1.48907,4.01508 3.0981,8.84206 4.42294,12.9383 0.40318,1.2164 1.36899,1.78383 2.37455,1.78383 1.56704,0 3.13773,-1.37844 2.49343,-3.3652 -1.68949,-5.23232 -3.73909,-10.70843 -5.75008,-15.4929 z" /><path
           inkscape:connector-curvature="0"
           id="path610"
           style="fill:#41545d;fill-opacity:1;fill-rule:nonzero;stroke:none"
           d="m 370.8943,402.9219 c -2.13224,0 -3.17737,-1.29863 -3.17737,-3.611 l 0,-0.52632 6.23355,0 0,0.52632 c 0,2.31237 -0.92402,3.611 -3.05618,3.611 l 0,0 z m 6.43393,-8.23448 -9.6113,0 0,-0.7694 c 0,-2.43484 1.08705,-3.85422 3.33701,-3.85422 2.01221,0 3.09803,0.32428 4.50448,0.89164 1.08589,0.4466 2.2941,-0.2019 2.61452,-1.37963 0.36235,-1.21606 -0.11995,-2.22907 -1.12558,-2.67425 -2.2114,-1.01525 -4.38325,-1.29937 -6.31392,-1.29937 -6.23235,0 -8.44607,4.13739 -8.44607,8.88177 l 0,3.77335 c 0,4.74441 2.61456,8.92187 8.48576,8.92187 6.11236,0 8.40646,-4.09718 8.40646,-8.80104 l 0,-1.74367 c 0,-1.0951 -0.84586,-1.94705 -1.85136,-1.94705 z" /></g><path
         d="m 179.17927,385.73562 25.5471,-14.87441 -9.11554,16.73724 c 7.4509,10.78946 19.02369,18.21657 30.95596,23.36576 l -21.84042,-40.103 25.54597,14.87441 0,29.74885 -25.54597,14.87338 -25.5471,-14.87338 0,-29.74885 0,0 z m 3.08705,26.36753 c 6.57566,-1.95689 13.4596,-2.95475 20.50646,-2.95475 1.3032,0 2.61202,0.0464 3.92515,0.11277 -5.32813,-2.11673 -10.54974,-4.86347 -17.41314,-10.04631 l -7.01847,12.88829 0,0 z m 0.22375,2.79603 22.2363,12.94466 20.69124,-12.04534 c -1.88408,-0.70291 -3.63965,-1.32057 -5.29507,-1.88715 -12.96966,-2.96057 -25.84075,-2.62475 -37.63247,0.98783 l 0,0 z m 8.12134,-18.12177 c 10.42689,7.91717 16.94001,10.07025 25.89656,13.03093 1.20791,0.39913 2.47003,0.81709 3.78661,1.26448 -10.03526,-4.96836 -19.48182,-11.68393 -26.14011,-20.80184 l -3.54306,6.50643 0,0 z"
         style="fill:#41545d;fill-opacity:1;fill-rule:nonzero;stroke:none"
         id="path618"
         inkscape:connector-curvature="0" /></g></g></svg>