<?xml version="1.0" encoding="UTF-8" standalone="no"?>
<!-- Created with Inkscape (http://www.inkscape.org/) -->

<svg
   xmlns:dc="http://purl.org/dc/elements/1.1/"
   xmlns:cc="http://creativecommons.org/ns#"
   xmlns:rdf="http://www.w3.org/1999/02/22-rdf-syntax-ns#"
   xmlns:svg="http://www.w3.org/2000/svg"
   xmlns="http://www.w3.org/2000/svg"
   xmlns:sodipodi="http://sodipodi.sourceforge.net/DTD/sodipodi-0.dtd"
   xmlns:inkscape="http://www.inkscape.org/namespaces/inkscape"
   width="497"
   height="484"
   viewBox="0 0 496.99998 484.00002"
   id="svg18169"
   version="1.1"
   inkscape:version="0.91 r13725"
   sodipodi:docname="FullSave - Logo avec baseline - Cloud &amp; haut débit.svg"
   inkscape:export-filename="/Users/guillaumefouquet/Documents/FullSave/Marketing/Charte graphique/Logos/FullSave - Logo avec baseline - Cloud &amp; haut débit.png"
   inkscape:export-xdpi="300"
   inkscape:export-ydpi="300">
  <defs
     id="defs18171">
    <clipPath
       clipPathUnits="userSpaceOnUse"
       id="clipPath66">
      <path
         d="m 0,0 170.079,0 0,-137.976 L 0,-137.976 0,0 Z"
         id="path68"
         inkscape:connector-curvature="0"
         style="clip-rule:evenodd" />
    </clipPath>
    <clipPath
       clipPathUnits="userSpaceOnUse"
       id="clipPath70">
      <path
         d="m 0,-137.97582 595.27559,0 0,275.95164 -595.27559,0 0,-275.95164 z"
         id="path72"
         inkscape:connector-curvature="0" />
    </clipPath>
    <clipPath
       clipPathUnits="userSpaceOnUse"
       id="clipPath74">
      <path
         d="m 0,0 113.337,0 0,-97.8196 L 0,-97.8196 0,0 Z"
         id="path76"
         inkscape:connector-curvature="0"
         style="clip-rule:evenodd" />
    </clipPath>
    <clipPath
       clipPathUnits="userSpaceOnUse"
       id="clipPath78">
      <path
         d="m 0,-97.81961 595.27559,0 0,195.63922 L 0,97.81961 0,-97.81961 Z"
         id="path80"
         inkscape:connector-curvature="0" />
    </clipPath>
  </defs>
  <sodipodi:namedview
     id="base"
     pagecolor="#ffffff"
     bordercolor="#666666"
     borderopacity="1.0"
     inkscape:pageopacity="0.0"
     inkscape:pageshadow="2"
     inkscape:zoom="0.70710678"
     inkscape:cx="-448.30617"
     inkscape:cy="75.086666"
     inkscape:document-units="px"
     inkscape:current-layer="layer1"
     showgrid="false"
     fit-margin-top="0"
     fit-margin-left="0"
     fit-margin-right="0"
     fit-margin-bottom="0"
     inkscape:window-width="1920"
     inkscape:window-height="1085"
     inkscape:window-x="1440"
     inkscape:window-y="1"
     inkscape:window-maximized="1"
     showguides="true"
     inkscape:guide-bbox="true"
     units="px" />
  <metadata
     id="metadata18174">
    <rdf:RDF>
      <cc:Work
         rdf:about="">
        <dc:format>image/svg+xml</dc:format>
        <dc:type
           rdf:resource="http://purl.org/dc/dcmitype/StillImage" />
        <dc:title />
      </cc:Work>
    </rdf:RDF>
  </metadata>
  <g
     inkscape:label="Fond"
     inkscape:groupmode="layer"
     id="layer1"
     transform="translate(-197.27078,31.727224)">
    <g
       id="g4228">
      <g
         id="g4218">
        <path
           inkscape:connector-curvature="0"
           id="path486"
           style="fill:#41545d;fill-opacity:1;fill-rule:nonzero;stroke:none"
           d="m 260.79075,275.13334 -4.31491,0 c -7.10413,0 -10.44638,3.38543 -10.44638,11.55399 l 0,1.97841 8.91458,0 c 4.17712,0 7.6586,3.51396 7.6586,7.74702 0,4.35857 -3.48148,7.89021 -7.6586,7.89021 l -8.91458,0 0,49.01728 c 0,5.21498 -4.17882,9.44354 -9.333,9.44354 -5.29209,0 -9.46932,-4.22856 -9.46932,-9.44354 l 0,-49.01728 -2.08774,0 c -4.17696,0 -7.65864,-3.53164 -7.65864,-7.89021 0,-4.23306 3.48168,-7.74702 7.65864,-7.74702 l 2.08774,0 0,-1.97841 c 0,-17.46854 8.91491,-28.17935 26.88229,-28.17935 l 6.68132,0 c 4.45732,0 8.21783,3.80358 8.21783,8.31271 0,4.65269 -3.76051,8.31265 -8.21783,8.31265 z" />
        <path
           inkscape:connector-curvature="0"
           id="path494"
           style="fill:#41545d;fill-opacity:1;fill-rule:nonzero;stroke:none"
           d="m 329.73478,362.76374 c -2.92135,0 -6.12728,-0.98654 -8.77674,-3.10195 -1.38685,-0.98252 -2.63786,-2.39551 -3.61498,-4.08129 -4.87896,4.50573 -11.56478,7.18324 -20.47201,7.18324 -16.71119,0 -23.4005,-10.7097 -23.4005,-26.34185 l 0,-39.02492 c 0,-5.21721 4.17697,-9.58034 9.33152,-9.58034 5.14667,0 9.47053,4.36313 9.47053,9.58034 l 0,36.62661 c 0,6.48119 1.67282,10.84722 9.74528,10.84722 5.15397,0 9.19494,-2.25263 11.56452,-5.77903 l 0,-41.6948 c 0,-5.21721 4.3164,-9.58034 9.47058,-9.58034 5.15461,0 9.33125,4.36313 9.33125,9.58034 l 0,44.09185 c 0,4.79582 1.94577,6.05631 4.17464,7.89217 1.39373,1.12211 2.64988,2.9551 2.64988,5.63223 0,5.50228 -4.04393,7.75052 -9.47397,7.75052 z" />
        <path
           inkscape:connector-curvature="0"
           id="path502"
           style="fill:#41545d;fill-opacity:1;fill-rule:nonzero;stroke:none"
           d="m 364.8424,362.76368 c -2.92568,0 -6.12701,-0.9869 -8.77699,-3.10195 -4.17416,-3.09719 -7.38295,-8.59142 -7.38295,-16.47957 l 0,-73.8206 c 0,-5.21393 4.31931,-9.44386 9.47381,-9.44386 5.15408,0 9.32839,4.22993 9.32839,9.44386 l 0,72.12768 c 0,4.79493 1.95275,6.05584 4.18147,7.89206 1.39098,1.12211 2.64686,2.95474 2.64686,5.6323 0,5.50185 -4.04081,7.75008 -9.47059,7.75008 z" />
        <path
           inkscape:connector-curvature="0"
           id="path510"
           style="fill:#41545d;fill-opacity:1;fill-rule:nonzero;stroke:none"
           d="m 399.93929,362.76368 c -2.92293,0 -6.12696,-0.9869 -8.77377,-3.10195 -4.17421,-3.09719 -7.37867,-8.59142 -7.37867,-16.47957 l 0,-73.8206 c 0,-5.21393 4.31492,-9.44386 9.46948,-9.44386 5.15408,0 9.32839,4.22993 9.32839,9.44386 l 0,72.12768 c 0,4.79493 1.9527,6.05584 4.18152,7.89206 1.38632,1.12211 2.6422,2.95474 2.6422,5.6323 0,5.50185 -4.03625,7.75008 -9.46915,7.75008 z" />
        <path
           inkscape:connector-curvature="0"
           id="path518"
           style="fill:#41545d;fill-opacity:1;fill-rule:nonzero;stroke:none"
           d="m 440.05531,362.76374 c -9.8917,0 -15.18378,-1.26414 -20.05475,-2.95797 -4.04404,-1.40818 -5.71373,-6.19591 -4.59856,-10.14723 1.53164,-4.64528 6.2682,-6.47669 10.16634,-5.06973 4.17845,1.55137 7.52091,2.67792 14.76595,2.67792 7.09969,0 11.27353,-2.67792 11.27353,-6.90119 0,-7.18805 -10.02516,-6.90606 -19.49453,-9.43629 -8.49029,-2.11468 -16.57011,-6.48569 -16.57011,-20.28966 0,-14.93788 12.11597,-22.82296 26.03948,-22.82296 8.91464,0 14.20667,1.26885 19.49918,3.09904 4.31947,1.54936 6.40758,5.9172 5.01348,9.99838 -1.25292,4.09029 -5.57239,6.48119 -9.7466,5.21673 -5.29225,-1.82818 -8.91474,-2.67744 -13.64797,-2.67744 -6.68577,0 -9.47387,2.67744 -9.47387,6.05208 0,6.33868 7.94234,6.62374 17.13278,8.59946 9.32813,2.11494 19.07801,6.05648 19.07801,21.41616 0,16.76156 -14.34039,23.2427 -29.38236,23.2427 z" />
        <path
           inkscape:connector-curvature="0"
           id="path526"
           style="fill:#41545d;fill-opacity:1;fill-rule:nonzero;stroke:none"
           d="m 516.1022,332.05136 -10.17116,0 c -8.21301,0 -11.13869,3.37918 -11.13869,8.03208 l 0,0.98415 c 0,5.21705 3.20456,8.1665 10.44659,8.1665 6.41022,0 10.86326,-3.51836 10.86326,-10.98158 l 0,-6.20115 z m 15.59749,30.71238 c -3.76056,0 -6.82055,-1.55101 -8.63121,-2.95797 -1.11507,-0.84572 -1.95021,-1.83305 -2.78779,-2.96394 -5.29214,4.65777 -12.95549,5.92191 -19.08266,5.92191 -16.71109,0 -25.06692,-8.73387 -25.06692,-21.98179 l 0,-0.97892 c 0,-13.24929 9.74666,-21.41621 27.57588,-21.41621 l 12.39521,0 0,-2.67274 c 0,-8.17644 -2.09108,-12.82468 -10.58439,-12.82468 -5.85131,0 -9.4737,1.4132 -12.52962,3.09898 -9.19377,4.79081 -16.57672,-7.46539 -8.0832,-12.95936 5.98927,-3.94354 14.76151,-5.21239 22.14461,-5.21239 20.19595,0 27.85682,9.01624 27.85682,30.14559 l 0,23.5266 c 0,4.79582 1.52925,6.05631 3.61937,7.89217 1.39611,1.26609 2.65067,2.9551 2.65067,5.63223 0,5.50228 -3.76854,7.75052 -9.47677,7.75052 z" />
        <path
           inkscape:connector-curvature="0"
           id="path534"
           style="fill:#41545d;fill-opacity:1;fill-rule:nonzero;stroke:none"
           d="m 588.39281,353.31982 c -3.34516,8.03696 -7.66214,9.44392 -12.39918,9.44392 -5.28987,0 -9.19145,-1.55101 -12.39119,-9.44392 -6.41128,-16.48115 -13.51271,-36.34462 -18.80644,-54.23427 -2.0861,-6.76292 3.20371,-11.26892 8.49744,-11.26892 3.34087,0 6.5485,1.97095 7.94059,6.19612 4.31327,13.95421 9.74448,30.8524 14.89671,44.94102 5.15672,-13.94638 10.72879,-30.71286 15.31645,-44.94102 1.39611,-4.22517 4.74079,-6.19612 8.22301,-6.19612 5.42681,0 10.86611,4.788 8.63486,11.68893 -5.85068,18.17445 -12.94819,37.19552 -19.91225,53.81426 z" />
        <path
           inkscape:connector-curvature="0"
           id="path542"
           style="fill:#41545d;fill-opacity:1;fill-rule:nonzero;stroke:none"
           d="m 644.52178,302.60417 c -7.38385,0 -11.00317,4.51082 -11.00317,12.54285 l 0,1.82818 21.58665,0 0,-1.82818 c 0,-8.03203 -3.19985,-12.54285 -10.58348,-12.54285 l 0,0 z m 22.28072,28.60231 -33.28389,0 0,2.67264 c 0,8.45706 3.76447,13.38761 11.55589,13.38761 6.96839,0 10.72879,-1.12655 15.59908,-3.09718 3.7605,-1.55138 7.94445,0.70125 9.05381,4.79217 1.25498,4.22369 -0.4154,7.74247 -3.89762,9.28866 -7.65806,3.52682 -15.17923,4.51336 -21.865,4.51336 -21.58253,0 -29.24864,-14.37088 -29.24864,-30.85039 l 0,-13.10674 c 0,-16.47967 9.05423,-30.98998 29.38612,-30.98998 21.16697,0 29.11137,14.23149 29.11137,30.57019 l 0,6.05674 c 0,3.80374 -2.92933,6.76292 -6.41112,6.76292 z" />
      </g>
      <path
         d="M 336.42843,163.85806 447.53415,228.74445 407.8902,155.73179 C 440.29466,108.66546 490.62539,76.266929 542.5195,53.804705 l -94.98535,174.939745 111.10096,-64.88639 0,-129.771983 -111.10096,-64.88115 -111.10572,64.88115 0,129.771983 0,0 z M 349.8542,48.836366 c 28.59786,8.536226 58.53665,12.889033 89.18389,12.889033 5.66769,0 11.35983,-0.202144 17.0706,-0.491601 -23.17216,9.233516 -45.88146,21.215337 -75.73097,43.824352 l -30.52352,-56.221784 0,0 z m 0.97309,-12.197089 96.70686,-56.467692 89.98759,52.544943 C 529.32762,35.782337 521.69247,38.47709 514.4932,40.948269 458.08742,53.863443 402.10995,52.39822 350.82729,36.639277 l 0,0 z m 35.32025,79.051683 c 45.34705,-34.536549 73.67297,-43.928975 112.62571,-56.844202 5.25314,-1.741292 10.74224,-3.564235 16.46825,-5.515979 -43.64412,21.673229 -84.72763,50.968171 -113.68485,90.742671 l -15.40911,-28.38249 0,0 z"
         style="fill:#41545d;fill-opacity:1;fill-rule:nonzero;stroke:none"
         id="path550"
         inkscape:connector-curvature="0" />
      <text
         sodipodi:linespacing="125%"
         id="text4247"
         y="441.91635"
         x="195.52759"
         style="font-style:normal;font-variant:normal;font-weight:300;font-stretch:normal;font-size:52.5px;line-height:125%;font-family:Roboto;-inkscape-font-specification:'Roboto, Light';text-align:start;letter-spacing:0px;word-spacing:0px;writing-mode:lr-tb;text-anchor:start;fill:#41545d;fill-opacity:1;stroke:none;stroke-width:1px;stroke-linecap:butt;stroke-linejoin:miter;stroke-opacity:1"
         xml:space="preserve"><tspan
           y="441.91635"
           x="195.52759"
           id="tspan4249"
           sodipodi:role="line">{  cloud &amp; haut débit  }</tspan></text>
    </g>
  </g>
</svg>
